<svg width="18" height="21" viewBox="0 0 18 21" fill="none" xmlns="http://www.w3.org/2000/svg">
<path d="M15.4167 5.5H13.5833C13.5833 2.93333 11.5667 0.916666 9 0.916666C6.43333 0.916666 4.41667 2.93333 4.41667 5.5H2.58333C1.575 5.5 0.75 6.325 0.75 7.33333V18.3333C0.75 19.3417 1.575 20.1667 2.58333 20.1667H15.4167C16.425 20.1667 17.25 19.3417 17.25 18.3333V7.33333C17.25 6.325 16.425 5.5 15.4167 5.5ZM9 2.75C10.5583 2.75 11.75 3.94167 11.75 5.5H6.25C6.25 3.94167 7.44167 2.75 9 2.75ZM15.4167 18.3333H2.58333V7.33333H15.4167V18.3333ZM9 11C7.44167 11 6.25 9.80833 6.25 8.25H4.41667C4.41667 10.8167 6.43333 12.8333 9 12.8333C11.5667 12.8333 13.5833 10.8167 13.5833 8.25H11.75C11.75 9.80833 10.5583 11 9 11Z" fill="#D6D1CA"/>
</svg>
